<!--?xml version="1.0" encoding="utf-8"?-->
<!-- Svg Vector Icons : http://www.onlinewebfonts.com/icon -->

<svg version="1.1" xmlns="http://www.w3.org/2000/svg" xmlns:xlink="http://www.w3.org/1999/xlink" x="0px" y="0px" viewBox="0 0 256 256" enable-background="new 0 0 256 256" xml:space="preserve">
<metadata> Svg Vector Icons : http://www.onlinewebfonts.com/icon </metadata>
<g><g><g><path fill="#000000" data-title="Layer 0" xs="0" d="M120.5,10.1c-18.3,1.6-32.6,5.6-47.4,13.3C51.6,34.6,33.3,53.2,22.4,74.9C14,91.8,10,108.7,10,128c0,19.3,4,36.3,12.4,53c9.6,19.2,25.8,36.7,44.4,48c38.7,23.6,88.4,22.6,126.4-2.7c49.1-32.6,66.6-95.9,41.4-149.1c-5.9-12.3-13-22.3-23.2-32.6c-18.9-18.9-41-29.9-67.7-33.7C138.8,10.3,124.5,9.7,120.5,10.1z M167,36.6c10.7,1.8,19.4,5.6,24.8,10.7c7.7,7.2,7.2,15.4-1.3,22.4c-9.3,7.7-27.8,11.9-45,10.4c-21.9-2-36.9-10.6-37.9-21.6c-0.2-2.6,0-3.3,1.2-6c4.2-8.5,17.9-15.1,35.4-16.8C150.1,35.1,160.7,35.5,167,36.6z M112.4,73.7c6,4.8,16.1,8.4,28.3,10.2c7.7,1.1,22.3,0.8,28.8-0.6c9.4-2,18.2-5.8,24-10.2c1.7-1.2,3.2-2.1,3.4-1.9c0.9,0.8,0.4,5.9-0.8,8.5c-3,6.7-13.8,13.1-26.4,15.7c-9,1.8-22.2,2.1-31.4,0.6c-17.1-2.9-29.7-11.2-30.6-20.2c-0.1-1.2,0-3,0.1-3.9c0.3-1.6,0.4-1.7,1.1-1C109.3,71.3,110.9,72.6,112.4,73.7z M197.2,91.1c0,9.8-11,17.7-30.3,21.6c-5.8,1.2-22.6,1.2-28.7,0c-6.5-1.2-12-2.9-16.5-5.1c-9.6-4.7-14.5-10.6-14-17.2c0.1-1.4,0.3-2.6,0.5-2.8c0.1-0.2,1.3,0.6,2.5,1.7c4.8,4.3,16.2,9.1,25.5,10.9c6.3,1.2,26,1.2,32.1,0c11.9-2.4,22-6.8,26.8-11.8C196.8,86.5,197.2,87.1,197.2,91.1z M118.6,110.9c5.4,2.7,8.9,3.9,15.3,5.4c13.1,3,30.5,2.3,43.6-1.7c5.9-1.8,12.8-5.4,16.2-8.4c3.2-2.9,3.7-2.4,3.4,3.4c-0.2,4.3-5.4,10.3-11.8,13.7c-8.8,4.5-17.6,6.6-30,7c-9.6,0.2-15.7-0.3-23.2-2.2c-16.6-4.2-26.2-13-24.5-22.3l0.3-1.7l3,2.4C112.8,107.6,116.2,109.7,118.6,110.9z M62.9,127l1.1,0.9l0,25.6c0,14.5-0.1,26-0.4,26.6c-0.8,2.1-1.5,2.3-9.2,2.4c-6.6,0-7.3-0.1-8.4-1l-1.2-0.9v-26.2v-26.1l1-1.1c1-1,1.2-1.1,8.5-1.1C61,126.2,61.9,126.2,62.9,127z M114,130.1c5.2,1,10.5,2.9,18.5,6.7c6.7,3.2,6.7,3.2,12.5,3.7c19.6,1.8,30.1,4.1,34,7.6c2.1,1.8,3.5,4.8,3.1,6.6c-0.6,2.3-3,6.6-4.5,7.7c-2.5,1.9-4.7,2.3-9.6,1.7c-3.6-0.4-22.2-1.5-27.6-1.6c-4,0-7.5,0.2-7.1,0.6c0.2,0.2,2.8,1.4,5.6,2.5c8.7,3.6,14,4.4,24.4,3.6c14.1-1.2,18.3-2.6,25.4-8.7c3.2-2.8,7.3-4.9,10.8-5.7c8.1-1.8,14.4,3.8,10.2,8.9l-1.4,1.7l1.2,0.6c2.8,1.3,1.4,6.1-2.9,9.8c-3.6,3.1-21.2,15-24.2,16.3c-1.6,0.7-4.3,1.4-7.4,1.8c-2.7,0.3-10.8,1.6-18.1,2.8c-11.3,1.8-14.1,2.2-20.1,2.2l-6.9,0l-5.6-2.4c-3.1-1.3-10.7-4.8-16.9-7.8c-24.1-11.5-26.9-12.7-32.1-13.6c-7.4-1.2-6.8,0.7-6.8-20.8v-18l1.2-1.1c1.8-1.8,15.2-4.8,26.5-6C99.9,128.8,110.2,129.3,114,130.1z"/></g></g></g>
</svg>