<?xml version="1.0" encoding="iso-8859-1"?>
<!-- Uploaded to: SVG Repo, www.svgrepo.com, Generator: SVG Repo Mixer Tools -->
<svg fill="#000000" height="800px" width="800px" version="1.1" id="Layer_1" xmlns="http://www.w3.org/2000/svg" xmlns:xlink="http://www.w3.org/1999/xlink" 
	 viewBox="0 0 512 512" xml:space="preserve">
<g>
	<g>
		<path d="M304.261,141.953c-3.048-3.555-6.004-7.003-8.837-10.331c6.829-4.495,11.348-12.224,11.348-20.992
			c0-10.246-6.17-19.074-14.987-22.977l23.2-77.333c0.728-2.427,0.266-5.056-1.247-7.089C312.226,1.198,309.841,0,307.307,0
			c-8.844,0-13.72,3.248-17.282,5.62c-2.837,1.89-4.401,2.931-8.394,2.931c-3.993,0-5.556-1.041-8.394-2.931
			C269.677,3.248,264.8,0,255.955,0c-8.838,0-13.71,3.25-17.266,5.623c-2.829,1.888-4.388,2.928-8.368,2.928
			c-3.977,0-5.536-1.04-8.364-2.927C218.401,3.25,213.53,0,204.693,0c-2.534,0-4.919,1.198-6.432,3.231
			c-1.514,2.033-1.975,4.661-1.247,7.089l23.2,77.333c-8.817,3.903-14.987,12.731-14.987,22.977c0,8.768,4.519,16.497,11.347,20.992
			c-2.833,3.327-5.788,6.776-8.837,10.331C162.472,194.755,94.063,274.549,94.063,350.063C94.063,439.355,166.707,512,256,512
			s161.937-72.645,161.937-161.937C417.937,274.549,349.528,194.755,304.261,141.953z M217.09,21.442
			c3.16,1.679,7.303,3.143,13.231,3.143c8.838,0,13.71-3.25,17.267-5.623c2.829-1.889,4.388-2.928,8.368-2.928
			c3.993,0,5.556,1.041,8.394,2.931c3.56,2.372,8.438,5.62,17.282,5.62c5.959,0,10.117-1.474,13.284-3.162l-19.227,64.089h-11.672
			V59.324c0-4.427-3.589-8.017-8.017-8.017c-4.427,0-8.017,3.589-8.017,8.017v26.188h-11.672L217.09,21.442z M290.739,110.63
			c0,5.01-4.076,9.086-9.086,9.086h-0.037c-0.004,0-0.007,0-0.011,0h-51.259c-5.01,0-9.086-4.076-9.086-9.086
			s4.076-9.086,9.086-9.086h51.281c0.01,0,0.019,0.002,0.029,0.002c0.005,0,0.01-0.001,0.015-0.001
			C286.673,101.556,290.739,105.626,290.739,110.63z M256,495.967c-80.452,0-145.904-65.452-145.904-145.904
			c0-69.582,66.085-146.666,109.815-197.674c5.02-5.855,9.779-11.414,14.174-16.64h13.899v9.086c0,4.427,3.589,8.017,8.017,8.017
			c4.427,0,8.017-3.589,8.017-8.017v-9.086h13.899c4.393,5.226,9.154,10.785,14.174,16.64
			c43.73,51.008,109.815,128.092,109.815,197.674C401.904,430.515,336.452,495.967,256,495.967z"/>
	</g>
</g>
<g>
	<g>
		<path d="M281.119,337.269v-59.955c10.467,4.192,18.171,10.895,18.171,19.037c0,4.427,3.589,8.017,8.017,8.017
			s8.017-3.589,8.017-8.017c0-16.264-13.836-29.953-34.205-36.192v-12.71c0-4.427-3.589-8.017-8.017-8.017s-8.017,3.589-8.017,8.017
			v9.531c-2.957-0.293-5.989-0.446-9.086-0.446c-3.097,0-6.129,0.153-9.086,0.446v-9.531c0-4.427-3.589-8.017-8.017-8.017
			s-8.017,3.589-8.017,8.017v12.71c-20.369,6.239-34.205,19.927-34.205,36.192c0,21.524,14.564,32.842,34.205,40.852v59.955
			c-10.467-4.192-18.171-10.895-18.171-19.037c0-4.427-3.589-8.017-8.017-8.017s-8.017,3.589-8.017,8.017
			c0,16.264,13.836,29.953,34.205,36.192v12.71c0,4.427,3.589,8.017,8.017,8.017s8.017-3.589,8.017-8.017v-9.531
			c2.957,0.293,5.989,0.446,9.086,0.446c3.097,0,6.129-0.153,9.086-0.446v9.531c0,4.427,3.589,8.017,8.017,8.017
			s8.017-3.589,8.017-8.017v-12.71c20.369-6.239,34.205-19.927,34.205-36.192C315.324,356.597,300.76,345.279,281.119,337.269z
			 M230.881,319.614c-13.305-6.477-18.171-13.359-18.171-23.263c0-8.142,7.705-14.845,18.171-19.037V319.614z M265.086,401.285
			c-3.026,0.403-6.081,0.619-9.086,0.619c-3.005,0-6.06-0.216-9.086-0.619v-58.429c2.248,0.703,4.521,1.391,6.816,2.068
			c4.114,1.214,7.886,2.399,11.355,3.568V401.285z M265.086,331.616c-2.248-0.703-4.521-1.391-6.816-2.068
			c-4.114-1.214-7.886-2.399-11.355-3.568v-52.793c3.026-0.403,6.081-0.619,9.086-0.619c3.005,0,6.06,0.216,9.086,0.619V331.616z
			 M281.119,397.158v-42.3c13.305,6.478,18.171,13.359,18.171,23.263C299.29,386.263,291.586,392.966,281.119,397.158z"/>
	</g>
</g>
</svg>